<svg width="128" height="128" viewBox="0 0 128 128" xmlns="http://www.w3.org/2000/svg">
  <defs>
    <linearGradient id="grad1" x1="0%" y1="0%" x2="100%" y2="100%">
      <stop offset="0%" style="stop-color:#667eea;stop-opacity:1" />
      <stop offset="100%" style="stop-color:#764ba2;stop-opacity:1" />
    </linearGradient>
  </defs>
  
  <!-- 背景円 -->
  <circle cx="64" cy="64" r="60" fill="url(#grad1)" stroke="#fff" stroke-width="4"/>
  
  <!-- 縦書きテキストの表現 -->
  <g transform="translate(64, 64)">
    <!-- 縦線（縦書きの表現） -->
    <line x1="-20" y1="-30" x2="-20" y2="30" stroke="#fff" stroke-width="3" stroke-linecap="round"/>
    <line x1="-10" y1="-30" x2="-10" y2="30" stroke="#fff" stroke-width="3" stroke-linecap="round"/>
    <line x1="0" y1="-30" x2="0" y2="30" stroke="#fff" stroke-width="3" stroke-linecap="round"/>
    <line x1="10" y1="-30" x2="10" y2="30" stroke="#fff" stroke-width="3" stroke-linecap="round"/>
    <line x1="20" y1="-30" x2="20" y2="30" stroke="#fff" stroke-width="3" stroke-linecap="round"/>
    
    <!-- 横線（横書きの表現） -->
    <line x1="-30" y1="-15" x2="30" y2="-15" stroke="#fff" stroke-width="2" stroke-linecap="round" opacity="0.6"/>
    <line x1="-30" y1="-5" x2="30" y2="-5" stroke="#fff" stroke-width="2" stroke-linecap="round" opacity="0.6"/>
    <line x1="-30" y1="5" x2="30" y2="5" stroke="#fff" stroke-width="2" stroke-linecap="round" opacity="0.6"/>
    <line x1="-30" y1="15" x2="30" y2="15" stroke="#fff" stroke-width="2" stroke-linecap="round" opacity="0.6"/>
    
    <!-- 矢印（切り替えの表現） -->
    <path d="M -35 -40 L -25 -40 L -30 -45 M -25 -40 L -30 -35" stroke="#fff" stroke-width="2" stroke-linecap="round" stroke-linejoin="round"/>
    <path d="M 35 40 L 25 40 L 30 35 M 25 40 L 30 45" stroke="#fff" stroke-width="2" stroke-linecap="round" stroke-linejoin="round"/>
  </g>
  
  <!-- 装飾的な円 -->
  <circle cx="64" cy="64" r="45" fill="none" stroke="#fff" stroke-width="1" opacity="0.3"/>
  <circle cx="64" cy="64" r="35" fill="none" stroke="#fff" stroke-width="1" opacity="0.2"/>
</svg> 